<svg width="20" height="20" viewBox="0 0 20 20" fill="none" xmlns="http://www.w3.org/2000/svg">
<g clip-path="url(#clip0_2423_118822)">
<path d="M19.9902 10.1874C19.9902 9.36804 19.9222 8.7701 19.7749 8.15002H10.199V11.8483H15.8198C15.7066 12.7674 15.0946 14.1516 13.7347 15.0816L13.7156 15.2054L16.7433 17.4973L16.9531 17.5177C18.8796 15.7793 19.9902 13.2214 19.9902 10.1874Z" fill="#4285F4"/>
<path d="M10.199 19.9317C12.9527 19.9317 15.2645 19.0458 16.9531 17.5178L13.7347 15.0817C12.8734 15.6685 11.7175 16.0782 10.199 16.0782C7.50186 16.0782 5.21272 14.3398 4.39671 11.937L4.2771 11.9469L1.12882 14.3276L1.08765 14.4395C2.76483 17.6949 6.20991 19.9317 10.199 19.9317Z" fill="#34A853"/>
<path d="M4.39695 11.9366C4.18164 11.3166 4.05703 10.6521 4.05703 9.96565C4.05703 9.27908 4.18164 8.61473 4.38562 7.99466L4.37992 7.8626L1.19219 5.44366L1.08789 5.49214C0.396641 6.84305 0 8.36008 0 9.96565C0 11.5712 0.396641 13.0882 1.08789 14.4391L4.39695 11.9366Z" fill="#FBBC05"/>
<path d="M10.1992 3.85336C12.1144 3.85336 13.4062 4.66168 14.1429 5.33718L17.0213 2.59107C15.2535 0.985496 12.953 0 10.1992 0C6.21016 0 2.76508 2.23672 1.08789 5.49214L4.38563 7.99466C5.21297 5.59183 7.50211 3.85336 10.1992 3.85336Z" fill="#EB4335"/>
</g>
<defs>
<clipPath id="clip0_2423_118822">
<rect width="20" height="20" fill="white"/>
</clipPath>
</defs>
</svg>
